<svg xmlns="http://www.w3.org/2000/svg" width="27" height="26" viewBox="0 0 27 26">
  <g id="Group_911" data-name="Group 911" transform="translate(-451 -5)">
    <rect id="Rectangle_34" data-name="Rectangle 34" width="27" height="26" rx="3" transform="translate(451 5)" fill="#fff"/>
    <path id="Path_672" data-name="Path 672" d="M515.37,83.674h2.588V92H515.37Zm1.3-1.134a1.5,1.5,0,1,1,1.5-1.51v.006a1.5,1.5,0,0,1-1.493,1.5ZM527.648,92h-2.589V87.952c0-.965,0-2.18-1.341-2.18s-1.553,1.024-1.553,2.114V92h-2.583V83.674h2.469v1.139h.033a2.725,2.725,0,0,1,2.452-1.346c2.616,0,3.1,1.727,3.1,3.968Z" transform="translate(-57.156 -67.531)" fill="#0077b5"/>
  </g>
</svg>
